<?xml version="1.0" encoding="UTF-8"?>
<svg id="Layer_2" data-name="Layer 2" xmlns="http://www.w3.org/2000/svg" viewBox="0 0 24 24">
  <defs>
    <style>
      .cls-1 {
        stroke-width: 0px;
      }
    </style>
  </defs>
  <path class="cls-1" d="m18.135,9.5h-9.635v-3.5c0-1.93,1.57-3.5,3.5-3.5s3.5,1.57,3.5,3.5c0,.276.224.5.5.5s.5-.224.5-.5c0-2.481-2.019-4.5-4.5-4.5s-4.5,2.019-4.5,4.5v3.5h-1.635c-1.304,0-2.365,1.062-2.365,2.365v8.27c0,1.304,1.062,2.365,2.365,2.365h12.27c1.304,0,2.365-1.062,2.365-2.365v-8.27c0-1.304-1.062-2.365-2.365-2.365Zm1.365,10.635c0,.753-.612,1.365-1.365,1.365H5.865c-.753,0-1.365-.612-1.365-1.365v-8.27c0-.753.612-1.365,1.365-1.365h12.27c.753,0,1.365.612,1.365,1.365v8.27Z"/>
  <path class="cls-1" d="m12,14c-.827,0-1.5.673-1.5,1.5,0,.651.419,1.201,1,1.408v.592c0,.276.224.5.5.5s.5-.224.5-.5v-.592c.581-.207,1-.757,1-1.408,0-.827-.673-1.5-1.5-1.5Zm0,2c-.275,0-.5-.225-.5-.5s.225-.5.5-.5.5.225.5.5-.225.5-.5.5Z"/>
</svg>